<svg width="21" height="28" viewBox="0 0 21 28" fill="none" xmlns="http://www.w3.org/2000/svg">
<path d="M20.2288 27.9522L0.774604 28C0.347136 28.001 0 27.6353 0 27.1837V9.10868C0 7.12898 1.1972 5.37095 2.97427 4.74191L15.7414 0.220317C18.3057 -0.687499 20.9586 1.32307 20.9659 4.18025L20.9981 16.9915C20.999 17.4462 20.6485 17.8139 20.2181 17.8098L16.459 17.7733C16.0349 17.7692 15.6932 17.405 15.6932 16.957V6.87952C15.6932 6.31734 15.1683 5.92387 14.6659 6.10852L5.74356 9.39672C5.43343 9.5109 5.22554 9.82053 5.22554 10.1677V21.6299C5.22554 22.0809 5.5717 22.4466 5.99868 22.4461L20.2269 22.4374C20.6538 22.4374 21 22.8026 21 23.2536V27.1354C21 27.5854 20.6553 27.9506 20.2293 27.9516L20.2288 27.9522Z" fill="#4A3120"/>
</svg>
