<svg width="73" height="92" viewBox="0 0 73 92" fill="none" xmlns="http://www.w3.org/2000/svg">
<path d="M70.3192 91.8428L2.69267 92C1.20671 92.0034 0 90.8018 0 89.318V29.9285C0 23.4238 4.16171 17.6474 10.3391 15.5806L54.72 0.723898C63.634 -2.25892 72.8561 4.34723 72.8815 13.7351L72.9932 55.8292C72.9966 57.3232 71.7781 58.5315 70.2819 58.518L57.2146 58.398C55.7405 58.3845 54.5524 57.188 54.5524 55.716V22.6041C54.5524 20.757 52.728 19.4641 50.9814 20.0708L19.9657 30.8749C18.8876 31.2501 18.165 32.2675 18.165 33.4082V71.0695C18.165 72.5516 19.3683 73.7532 20.8525 73.7515L70.3124 73.7228C71.7967 73.7228 73 74.9227 73 76.4048V89.1591C73 90.6379 71.8018 91.8377 70.3209 91.8411L70.3192 91.8428Z" fill="#F7EAD2"/>
</svg>
