<svg width="35" height="34" viewBox="0 0 35 34" fill="none" xmlns="http://www.w3.org/2000/svg">
<path d="M2.375 2.375H7.875L11.56 20.7863C11.6857 21.4193 12.0301 21.9879 12.5329 22.3927C13.0356 22.7974 13.6647 23.0124 14.31 23H27.675C28.3203 23.0124 28.9494 22.7974 29.4521 22.3927C29.9549 21.9879 30.2993 21.4193 30.425 20.7863L32.625 9.25H9.25M14.75 29.875C14.75 30.6344 14.1344 31.25 13.375 31.25C12.6156 31.25 12 30.6344 12 29.875C12 29.1156 12.6156 28.5 13.375 28.5C14.1344 28.5 14.75 29.1156 14.75 29.875ZM29.875 29.875C29.875 30.6344 29.2594 31.25 28.5 31.25C27.7406 31.25 27.125 30.6344 27.125 29.875C27.125 29.1156 27.7406 28.5 28.5 28.5C29.2594 28.5 29.875 29.1156 29.875 29.875Z" stroke="#F5EDE4" stroke-width="4" stroke-linecap="round" stroke-linejoin="round"/>
</svg>
