<svg width="33" height="30" viewBox="0 0 33 30" fill="none" xmlns="http://www.w3.org/2000/svg">
<path d="M28.655 4.3387C27.9527 3.63608 27.1189 3.07871 26.2011 2.69844C25.2834 2.31816 24.2997 2.12244 23.3062 2.12244C22.3128 2.12244 21.3291 2.31816 20.4114 2.69844C19.4936 3.07871 18.6598 3.63608 17.9575 4.3387L16.5 5.7962L15.0425 4.3387C13.6239 2.92012 11.6999 2.12317 9.69375 2.12317C7.68758 2.12317 5.76357 2.92012 4.345 4.3387C2.92642 5.75727 2.12947 7.68128 2.12947 9.68745C2.12947 11.6936 2.92642 13.6176 4.345 15.0362L16.5 27.1912L28.655 15.0362C29.3576 14.3339 29.915 13.5001 30.2953 12.5823C30.6755 11.6646 30.8713 10.6809 30.8713 9.68745C30.8713 8.69403 30.6755 7.71034 30.2953 6.79258C29.915 5.87483 29.3576 5.04099 28.655 4.3387Z" stroke="#4A3120" stroke-width="4" stroke-linecap="round" stroke-linejoin="round"/>
</svg>
