<svg width="33" height="29" viewBox="0 0 33 29" fill="none" xmlns="http://www.w3.org/2000/svg">
<path d="M28.5255 4.21626C27.8232 3.51364 26.9894 2.95627 26.0716 2.576C25.1539 2.19573 24.1702 2 23.1768 2C22.1834 2 21.1997 2.19573 20.2819 2.576C19.3642 2.95627 18.5303 3.51364 17.828 4.21626L16.3705 5.67376L14.913 4.21626C13.4944 2.79768 11.5704 2.00074 9.56427 2.00074C7.5581 2.00074 5.6341 2.79768 4.21552 4.21626C2.79695 5.63484 2 7.55884 2 9.56501C2 11.5712 2.79695 13.4952 4.21552 14.9138L16.3705 27.0688L28.5255 14.9138C29.2281 14.2115 29.7855 13.3776 30.1658 12.4599C30.5461 11.5421 30.7418 10.5584 30.7418 9.56501C30.7418 8.57159 30.5461 7.5879 30.1658 6.67015C29.7855 5.75239 29.2281 4.91855 28.5255 4.21626Z" stroke="white" stroke-width="3" stroke-linecap="round" stroke-linejoin="round"/>
</svg>
