<svg width="34" height="34" viewBox="0 0 34 34" fill="none" xmlns="http://www.w3.org/2000/svg">
<g clip-path="url(#clip0_3447_1515)">
<path d="M14.1667 18.4167C14.7751 19.23 15.5513 19.903 16.4427 20.39C17.334 20.877 18.3197 21.1666 19.3328 21.2392C20.3459 21.3117 21.3628 21.1656 22.3144 20.8106C23.2661 20.4556 24.1303 19.9 24.8484 19.1817L29.0984 14.9317C30.3887 13.5958 31.1026 11.8065 31.0865 9.94927C31.0703 8.09205 30.3254 6.31546 29.0121 5.00215C27.6988 3.68884 25.9222 2.9439 24.065 2.92776C22.2077 2.91162 20.4185 3.62558 19.0825 4.91587L16.6459 7.33837M19.8334 15.5834C19.225 14.77 18.4488 14.097 17.5574 13.61C16.6661 13.123 15.6804 12.8335 14.6673 12.7609C13.6542 12.6883 12.6373 12.8345 11.6856 13.1895C10.734 13.5445 9.86979 14.1 9.15171 14.8184L4.90171 19.0684C3.61142 20.4043 2.89746 22.1936 2.9136 24.0508C2.92974 25.908 3.67468 27.6846 4.98799 28.9979C6.3013 30.3112 8.07789 31.0562 9.93511 31.0723C11.7923 31.0884 13.5816 30.3745 14.9175 29.0842L17.34 26.6617" stroke="#F5EDE4" stroke-opacity="0.51" stroke-width="4" stroke-linecap="round" stroke-linejoin="round"/>
</g>
<defs>
<clipPath id="clip0_3447_1515">
<rect width="34" height="34" fill="white"/>
</clipPath>
</defs>
</svg>
