<svg width="35" height="35" viewBox="0 0 35 35" fill="none" xmlns="http://www.w3.org/2000/svg">
<path d="M14.5833 18.9584C15.2096 19.7957 16.0086 20.4885 16.9262 20.9898C17.8438 21.4911 18.8584 21.7892 19.9014 21.8639C20.9443 21.9386 21.9911 21.7881 22.9707 21.4227C23.9503 21.0573 24.8399 20.4854 25.5792 19.7459L29.9542 15.3709C31.2824 13.9957 32.0174 12.1538 32.0007 10.242C31.9841 8.33013 31.2173 6.50129 29.8653 5.14935C28.5134 3.79742 26.6846 3.03056 24.7727 3.01395C22.8609 2.99733 21.019 3.73229 19.6437 5.06053L17.1354 7.55428M20.4167 16.0418C19.7904 15.2045 18.9913 14.5117 18.0738 14.0104C17.1562 13.5091 16.1415 13.211 15.0986 13.1363C14.0557 13.0616 13.0089 13.2121 12.0293 13.5775C11.0496 13.943 10.16 14.5148 9.42082 15.2543L5.04582 19.6293C3.71758 21.0045 2.98262 22.8464 2.99924 24.7582C3.01585 26.6701 3.78271 28.4989 5.13464 29.8509C6.48658 31.2028 8.31542 31.9697 10.2273 31.9863C12.1391 32.0029 13.981 31.2679 15.3562 29.9397L17.85 27.4459" stroke="#F5EDE4" stroke-width="4" stroke-linecap="round" stroke-linejoin="round"/>
</svg>
