<?xml version="1.0" encoding="UTF-8"?>
<svg width="37px" height="40px" viewBox="0 0 37 40" xmlns="http://www.w3.org/2000/svg" xmlns:xlink="http://www.w3.org/1999/xlink" version="1.1">
 <!-- Generated by Pixelmator Pro 2.0.6 -->
 <g id="group">
  <path id="Path" d="M34.833 38 L34.833 33.944 C34.833 31.793 33.979 29.73 32.458 28.209 30.937 26.688 28.873 25.833 26.722 25.833 L10.5 25.833 C8.349 25.833 6.286 26.688 4.765 28.209 3.243 29.73 2.389 31.793 2.389 33.944 L2.389 38 M26.722 9.611 C26.722 14.091 23.091 17.722 18.611 17.722 14.132 17.722 10.5 14.091 10.5 9.611 10.5 5.131 14.132 1.5 18.611 1.5 23.091 1.5 26.722 5.131 26.722 9.611 Z" fill="none" stroke="#F5EDE4" stroke-width="3.842" stroke-opacity="1" stroke-linejoin="round" stroke-linecap="round"/>
 </g>
</svg>
