<svg width="7" height="27" viewBox="0 0 7 27" fill="none" xmlns="http://www.w3.org/2000/svg">
<path d="M3.5 14.875C4.25939 14.875 4.875 14.2594 4.875 13.5C4.875 12.7406 4.25939 12.125 3.5 12.125C2.74061 12.125 2.125 12.7406 2.125 13.5C2.125 14.2594 2.74061 14.875 3.5 14.875Z" stroke="#4A3120" stroke-width="4" stroke-linecap="round" stroke-linejoin="round"/>
<path d="M3.5 5.25C4.25939 5.25 4.875 4.63439 4.875 3.875C4.875 3.11561 4.25939 2.5 3.5 2.5C2.74061 2.5 2.125 3.11561 2.125 3.875C2.125 4.63439 2.74061 5.25 3.5 5.25Z" stroke="#4A3120" stroke-width="4" stroke-linecap="round" stroke-linejoin="round"/>
<path d="M3.5 24.5C4.25939 24.5 4.875 23.8844 4.875 23.125C4.875 22.3656 4.25939 21.75 3.5 21.75C2.74061 21.75 2.125 22.3656 2.125 23.125C2.125 23.8844 2.74061 24.5 3.5 24.5Z" stroke="#4A3120" stroke-width="4" stroke-linecap="round" stroke-linejoin="round"/>
</svg>
