<svg width="34" height="34" viewBox="0 0 34 34" fill="none" xmlns="http://www.w3.org/2000/svg">
<path d="M17.125 21.25C19.4032 21.25 21.25 19.4032 21.25 17.125C21.25 14.8468 19.4032 13 17.125 13C14.8468 13 13 14.8468 13 17.125C13 19.4032 14.8468 21.25 17.125 21.25Z" stroke="white" stroke-width="3" stroke-linecap="round" stroke-linejoin="round"/>
<path d="M27.3 21.25C27.117 21.6647 27.0624 22.1248 27.1432 22.5708C27.2241 23.0169 27.4368 23.4284 27.7537 23.7525L27.8363 23.835C28.0919 24.0904 28.2948 24.3937 28.4332 24.7275C28.5716 25.0614 28.6428 25.4192 28.6428 25.7806C28.6428 26.142 28.5716 26.4999 28.4332 26.8337C28.2948 27.1676 28.0919 27.4708 27.8363 27.7262C27.5809 27.9819 27.2776 28.1848 26.9437 28.3232C26.6099 28.4616 26.252 28.5328 25.8906 28.5328C25.5292 28.5328 25.1714 28.4616 24.8375 28.3232C24.5037 28.1848 24.2004 27.9819 23.945 27.7262L23.8625 27.6437C23.5384 27.3268 23.1269 27.1141 22.6808 27.0332C22.2348 26.9524 21.7747 27.007 21.36 27.19C20.9533 27.3643 20.6065 27.6537 20.3622 28.0226C20.1179 28.3915 19.9868 28.8238 19.985 29.2662V29.5C19.985 30.2293 19.6953 30.9288 19.1795 31.4445C18.6638 31.9603 17.9643 32.25 17.235 32.25C16.5057 32.25 15.8062 31.9603 15.2905 31.4445C14.7747 30.9288 14.485 30.2293 14.485 29.5V29.3762C14.4744 28.9211 14.327 28.4797 14.0622 28.1095C13.7974 27.7392 13.4273 27.4571 13 27.3C12.5853 27.117 12.1252 27.0624 11.6792 27.1432C11.2331 27.2241 10.8216 27.4368 10.4975 27.7537L10.415 27.8363C10.1596 28.0919 9.85631 28.2948 9.52246 28.4332C9.18862 28.5716 8.83077 28.6428 8.46937 28.6428C8.10798 28.6428 7.75013 28.5716 7.41629 28.4332C7.08244 28.2948 6.77915 28.0919 6.52375 27.8363C6.26806 27.5809 6.06523 27.2776 5.92684 26.9437C5.78844 26.6099 5.71721 26.252 5.71721 25.8906C5.71721 25.5292 5.78844 25.1714 5.92684 24.8375C6.06523 24.5037 6.26806 24.2004 6.52375 23.945L6.60625 23.8625C6.92324 23.5384 7.13588 23.1269 7.21676 22.6808C7.29763 22.2348 7.24303 21.7747 7.06 21.36C6.8857 20.9533 6.59629 20.6065 6.22739 20.3622C5.85849 20.1179 5.42621 19.9868 4.98375 19.985H4.75C4.02065 19.985 3.32118 19.6953 2.80546 19.1795C2.28973 18.6638 2 17.9643 2 17.235C2 16.5057 2.28973 15.8062 2.80546 15.2905C3.32118 14.7747 4.02065 14.485 4.75 14.485H4.87375C5.32887 14.4744 5.77026 14.327 6.14054 14.0622C6.51082 13.7974 6.79286 13.4273 6.95 13C7.13303 12.5853 7.18763 12.1252 7.10676 11.6792C7.02588 11.2331 6.81324 10.8216 6.49625 10.4975L6.41375 10.415C6.15806 10.1596 5.95523 9.85631 5.81684 9.52246C5.67844 9.18862 5.60721 8.83077 5.60721 8.46937C5.60721 8.10798 5.67844 7.75013 5.81684 7.41629C5.95523 7.08244 6.15806 6.77915 6.41375 6.52375C6.66915 6.26806 6.97244 6.06523 7.30629 5.92684C7.64013 5.78844 7.99798 5.71721 8.35938 5.71721C8.72077 5.71721 9.07862 5.78844 9.41246 5.92684C9.74631 6.06523 10.0496 6.26806 10.305 6.52375L10.3875 6.60625C10.7116 6.92324 11.1231 7.13588 11.5692 7.21676C12.0152 7.29763 12.4753 7.24303 12.89 7.06H13C13.4067 6.8857 13.7535 6.59629 13.9978 6.22739C14.2421 5.85849 14.3732 5.42621 14.375 4.98375V4.75C14.375 4.02065 14.6647 3.32118 15.1805 2.80546C15.6962 2.28973 16.3957 2 17.125 2C17.8543 2 18.5538 2.28973 19.0695 2.80546C19.5853 3.32118 19.875 4.02065 19.875 4.75V4.87375C19.8768 5.31621 20.0079 5.74849 20.2522 6.11739C20.4965 6.48629 20.8433 6.7757 21.25 6.95C21.6647 7.13303 22.1248 7.18763 22.5708 7.10676C23.0169 7.02588 23.4284 6.81324 23.7525 6.49625L23.835 6.41375C24.0904 6.15806 24.3937 5.95523 24.7275 5.81684C25.0614 5.67844 25.4192 5.60721 25.7806 5.60721C26.142 5.60721 26.4999 5.67844 26.8337 5.81684C27.1676 5.95523 27.4708 6.15806 27.7262 6.41375C27.9819 6.66915 28.1848 6.97244 28.3232 7.30629C28.4616 7.64013 28.5328 7.99798 28.5328 8.35938C28.5328 8.72077 28.4616 9.07862 28.3232 9.41246C28.1848 9.74631 27.9819 10.0496 27.7262 10.305L27.6437 10.3875C27.3268 10.7116 27.1141 11.1231 27.0332 11.5692C26.9524 12.0152 27.007 12.4753 27.19 12.89V13C27.3643 13.4067 27.6537 13.7535 28.0226 13.9978C28.3915 14.2421 28.8238 14.3732 29.2662 14.375H29.5C30.2293 14.375 30.9288 14.6647 31.4445 15.1805C31.9603 15.6962 32.25 16.3957 32.25 17.125C32.25 17.8543 31.9603 18.5538 31.4445 19.0695C30.9288 19.5853 30.2293 19.875 29.5 19.875H29.3762C28.9338 19.8768 28.5015 20.0079 28.1326 20.2522C27.7637 20.4965 27.4743 20.8433 27.3 21.25Z" stroke="white" stroke-width="3" stroke-linecap="round" stroke-linejoin="round"/>
</svg>
